<svg width="26" height="26" xmlns="http://www.w3.org/2000/svg">
    <defs>
        <linearGradient x1="15.806%" y1="11.259%" x2="78.17%" y2="79.269%" id="a">
            <stop stop-color="#FF947F" offset="0%"/>
            <stop stop-color="#FF543F" offset="100%"/>
        </linearGradient>
    </defs>
    <g fill="none" fill-rule="evenodd">
        <rect fill="url(#a)" width="26" height="26" rx="4.588"/>
        <rect fill="#FFF" x="12" y="19.9" width="8" height="1" rx=".5"/>
        <g fill="#FFF">
            <path d="m17.683 5.017 2.554 2.143c.142.12.164.33.05.476l-8.74 11.159a.344.344 0 0 1-.493.051L7.769 16.09a.344.344 0 0 1-.035-.494L17.206 5.05a.344.344 0 0 1 .477-.033zM7.58 16.508l3.095 2.596a.23.23 0 0 1-.103.4l-1.75.342a.23.23 0 0 1-.19-.05L7.253 18.64a.23.23 0 0 1-.082-.18l.033-1.78a.23.23 0 0 1 .377-.172zM7.172 19.094l1.042.875a.23.23 0 0 1 .028.323l-.434.518a.23.23 0 0 1-.175.082l-1.786.012a.23.23 0 0 1-.177-.377l1.178-1.405a.23.23 0 0 1 .324-.028z"/>
        </g>
    </g>
</svg>
