<?xml version="1.0" encoding="UTF-8"?>
<svg width="24px" height="24px" viewBox="0 0 24 24" version="1.1" xmlns="http://www.w3.org/2000/svg" xmlns:xlink="http://www.w3.org/1999/xlink">
    <title>F1F7256A-7272-4BA7-8E53-31AB357AEBDB</title>
    <g id="1.-My-Markups" stroke="none" stroke-width="1" fill="none" fill-rule="evenodd">
        <g id="Web/1-2-6-Note" transform="translate(-761.000000, -509.000000)" fill="#737373">
            <g id="Group-5" transform="translate(719.000000, 505.000000)">
                <g id="mk/extension/ic/note" transform="translate(42.000000, 4.000000)">
                    <g id="mk/note/ic/note" transform="translate(0.000000, 0.000000)">
                        <path d="M18.5333333,2.4 C19.5642649,2.4 20.4,3.23573513 20.4,4.26666667 L20.4,15.6505392 C20.4,15.772031 20.3526203,15.8887334 20.267931,15.9758424 L14.9374367,21.4586366 C14.8495722,21.5490115 14.7288858,21.6 14.602839,21.6 L5.46666667,21.6 C4.43573513,21.6 3.6,20.7642649 3.6,19.7333333 L3.6,4.26666667 C3.6,3.23573513 4.43573513,2.4 5.46666667,2.4 L18.5333333,2.4 Z M19.0495806,15.84 L15.2666667,15.84 C15.0089338,15.84 14.8,16.0489338 14.8,16.3066667 L14.8,20.2806604 L19.0495806,15.84 Z M12.2613333,12.768 L7.072,12.768 C6.70086465,12.768 6.4,13.0688646 6.4,13.44 C6.4,13.8111354 6.70086465,14.112 7.072,14.112 L7.072,14.112 L12.2613333,14.112 C12.6324687,14.112 12.9333333,13.8111354 12.9333333,13.44 C12.9333333,13.0688646 12.6324687,12.768 12.2613333,12.768 L12.2613333,12.768 Z M15.9946667,9.504 L7.072,9.504 C6.70086465,9.504 6.4,9.80486465 6.4,10.176 C6.4,10.5471354 6.70086465,10.848 7.072,10.848 L7.072,10.848 L15.9946667,10.848 C16.365802,10.848 16.6666667,10.5471354 16.6666667,10.176 C16.6666667,9.80486465 16.365802,9.504 15.9946667,9.504 L15.9946667,9.504 Z M15.9946667,6.24 L7.072,6.24 C6.70086465,6.24 6.4,6.54086465 6.4,6.912 C6.4,7.28313535 6.70086465,7.584 7.072,7.584 L7.072,7.584 L15.9946667,7.584 C16.365802,7.584 16.6666667,7.28313535 16.6666667,6.912 C16.6666667,6.54086465 16.365802,6.24 15.9946667,6.24 L15.9946667,6.24 Z" id="Combined-Shape"></path>
                    </g>
                </g>
            </g>
        </g>
    </g>
</svg>