<svg width="48" height="48" xmlns="http://www.w3.org/2000/svg">
    <g transform="translate(6 12)" fill="none" fill-rule="evenodd">
        <rect fill="#FF5F4B" opacity=".311" y="1.633" width="22.8" height="3.6" rx="1.2"/>
        <rect fill="#FF5F4B" opacity=".532" y="7.633" width="19.2" height="3.6" rx="1.2"/>
        <rect fill="#FF5F4B" opacity=".778" y="13.633" width="14.4" height="3.6" rx="1.2"/>
        <rect fill="#FF5F4B" y="19.633" width="12" height="3.6" rx="1.2"/>
        <path d="m32.308.558 3.531 3.059a.484.484 0 0 1 .07.658L23.812 20.21a.484.484 0 0 1-.702.073l-4.542-3.933a.484.484 0 0 1-.049-.684L31.626.606a.484.484 0 0 1 .682-.048zM18.331 16.966l4.28 3.707a.323.323 0 0 1-.147.56l-2.42.488a.323.323 0 0 1-.275-.072l-1.906-1.65a.323.323 0 0 1-.111-.25l.045-2.545a.323.323 0 0 1 .534-.238zM17.761 20.656l1.44 1.247c.132.114.15.312.04.447l-.607.746a.323.323 0 0 1-.248.119l-2.469.018a.323.323 0 0 1-.252-.526l1.634-2.011a.323.323 0 0 1 .462-.04z" fill-opacity=".7" fill="#000"/>
    </g>
</svg>
